<svg xmlns="http://www.w3.org/2000/svg" width="16.808" height="16.808" viewBox="0 0 16.808 16.808">
    <defs>
        <style>
            .cls-1{fill:#fff}
        </style>
    </defs>
    <g id="instagram" transform="rotate(-90 8.404 8.404)">
        <g id="Groupe_1285">
            <g id="Groupe_1284">
                <path id="Tracé_1209" d="M11.926 0H4.882A4.888 4.888 0 0 0 0 4.882v7.043a4.888 4.888 0 0 0 4.882 4.882h7.043a4.888 4.888 0 0 0 4.882-4.882V4.882A4.888 4.888 0 0 0 11.926 0zm3.569 11.926a3.573 3.573 0 0 1-3.569 3.569H4.882a3.573 3.573 0 0 1-3.569-3.569V4.882a3.573 3.573 0 0 1 3.569-3.569h7.043a3.573 3.573 0 0 1 3.569 3.569z" class="cls-1"/>
            </g>
        </g>
        <g id="Groupe_1287" transform="translate(3.874 3.874)">
            <g id="Groupe_1286">
                <path id="Tracé_1210" d="M4.53 0a4.53 4.53 0 1 0 4.53 4.53A4.535 4.535 0 0 0 4.53 0zm0 7.748A3.217 3.217 0 1 1 7.748 4.53 3.221 3.221 0 0 1 4.53 7.748z" class="cls-1"/>
            </g>
        </g>
        <g id="Groupe_1289" transform="translate(12.343 3.152)">
            <g id="Groupe_1288">
                <circle id="Ellipse_91" cx=".657" cy=".657" r=".657" class="cls-1"/>
            </g>
        </g>
    </g>
</svg>
