<svg xmlns="http://www.w3.org/2000/svg" width="14.92" height="14.925" viewBox="0 0 14.92 14.925">
    <g>
        <path fill="#fff" d="M4.688 4.941L1.242 1.493 2.576.157A.529.529 0 0 1 3.322.15l2.685 2.688a.531.531 0 0 1 0 .75l-.588.587-.547.547a1.507 1.507 0 0 0-.184.219zm2.835 5.616c-.564-.486-1.105-1-1.631-1.525S4.855 7.964 4.368 7.4A1.7 1.7 0 0 1 4.1 5.711L.563 2.173c-.823.846-.718 2.945.184 4.789a13.275 13.275 0 0 0 1.409 2.2 19.736 19.736 0 0 0 1.686 1.924 18.8 18.8 0 0 0 1.92 1.692 13.279 13.279 0 0 0 2.2 1.406c1.847.9 3.946 1 4.791.176l-3.54-3.537a1.705 1.705 0 0 1-1.689-.266zm7.248 1.043l-2.685-2.684a.535.535 0 0 0-.75 0l-.59.589-.544.547a1.651 1.651 0 0 1-.218.181l3.445 3.447q.669-.67 1.337-1.335a.525.525 0 0 0 .005-.745z" transform="translate(-.003)"/>
    </g>
</svg>
